<?xml version="1.0" standalone="no"?>
<!DOCTYPE svg PUBLIC "-//W3C//DTD SVG 1.1//EN" "http://www.w3.org/Graphics/SVG/1.1/DTD/svg11.dtd" >
<svg xmlns="http://www.w3.org/2000/svg">
<metadata>
<json>
<![CDATA[
{
	"fontFamily": "fulcrum",
	"majorVersion": 1,
	"minorVersion": 0,
	"copyright": "eBay 2015",
	"version": "Version 1.0",
	"fontId": "fulcrum",
	"psName": "fulcrum",
	"subFamily": "Regular",
	"fullName": "fulcrum",
	"description": "Font generated by IcoMoon."
}
]]>
</json>
</metadata>
<defs>
<font id="fulcrum" horiz-adv-x="1024">
<font-face units-per-em="1024" ascent="960" descent="-64" />
<missing-glyph horiz-adv-x="1024" />
<glyph unicode="&#x20;" d="" horiz-adv-x="512" />
<glyph unicode="&#xe05f;" d="M512-73.143c-282.77 0-512 229.23-512 512s229.23 512 512 512c282.77 0 512-229.23 512-512s-229.23-512-512-512zM268.351 253.115l58.693-57.906c7.741-8.498 17.752-12.352 29.347-12.352s20.849 3.854 29.347 12.352l126.641 126.65 126.641-126.65c7.741-8.498 17.752-12.352 29.347-12.352s20.849 3.854 29.347 12.352l58.693 57.906c7.706 8.498 11.594 18.545 11.594 29.349 0 11.595-3.888 21.642-11.594 29.349l-126.641 126.65 126.641 126.65c7.706 8.498 11.594 18.545 11.594 29.349 0 11.595-3.888 21.642-11.594 29.349l-58.693 58.697c-8.498 8.498-17.752 12.352-29.347 12.352s-21.606-3.854-29.347-12.352l-126.641-126.65-126.641 126.65c-8.498 8.498-17.752 12.352-29.347 12.352s-21.606-3.854-29.347-12.352l-58.693-58.697c-7.706-7.707-12.351-17.754-12.351-29.349 0-10.804 4.645-20.85 12.351-29.349l126.641-126.65-126.641-126.65c-7.706-7.707-12.351-17.754-12.351-29.349 0-10.804 4.645-20.85 12.351-29.349z" data-tags="close, delete" />
<glyph unicode="&#xe060;" d="M5.11-66.642c4.106-3.889 8.212-6.501 13.321-6.501h987.139c5.11 0 9.215 2.612 13.321 6.501 3.057 5.224 5.11 10.448 5.11 16.949v139.42c0 6.501-2.053 11.725-5.11 16.949-4.106 3.889-8.212 6.501-13.321 6.501h-987.139c-5.11 0-9.215-2.612-13.321-6.501-3.057-5.224-5.11-10.448-5.11-16.949v-139.42c0-6.501 2.053-11.725 5.11-16.949v0 0zM5.11 771.097c4.106-3.947 8.212-6.501 13.321-6.501h987.139c5.11 0 9.215 2.554 13.321 6.501 3.057 5.224 5.11 10.39 5.11 16.949v139.362c0 6.559-2.053 11.725-5.11 16.949-4.106 3.889-8.212 6.501-13.321 6.501h-987.139c-5.11 0-9.215-2.612-13.321-6.501-3.057-5.224-5.11-10.39-5.11-16.949v-139.362c0-6.559 2.053-11.725 5.11-16.949v0 0zM355.129 212.198c4.212-3.947 8.424-6.559 13.666-6.559h637.672c5.242 0 9.454 2.612 13.666 6.559 3.136 5.166 5.242 10.39 5.242 16.891v139.42c0 6.501-2.106 11.725-5.242 16.949-4.212 3.889-8.424 6.501-13.666 6.501h-637.672c-5.242 0-9.454-2.612-13.666-6.501-3.136-5.224-5.242-10.448-5.242-16.949v-139.42c0-6.501 2.106-11.725 5.242-16.891v0 0zM355.129 492.257c4.212-3.889 8.424-6.501 13.666-6.501h637.672c5.242 0 9.454 2.612 13.666 6.501 3.136 5.224 5.242 10.448 5.242 16.949v139.42c0 6.501-2.106 11.725-5.242 16.949-4.212 3.889-8.424 6.501-13.666 6.501h-637.672c-5.242 0-9.454-2.612-13.666-6.501-3.136-5.224-5.242-10.448-5.242-16.949v-139.42c0-6.501 2.106-11.725 5.242-16.949v0 0zM213.842 421.793l-180.272-209.807c-3.342-3.949-7.831-6.562-13.418-6.562-5.637 0-10.076 2.613-14.565 6.562-4.489 5.168-5.587 10.395-5.587 16.898v419.731c0 6.504 1.097 11.73 5.587 16.956 4.489 3.891 8.929 6.504 14.565 6.504 5.587 0 10.076-2.613 13.418-6.504l180.272-209.865c3.342-3.891 5.587-10.453 5.587-16.956s-2.245-13.008-5.587-16.956v0 0z" data-tags="indent" />
<glyph unicode="&#xe061;" d="M5.11-66.642c4.106-3.889 8.212-6.501 13.321-6.501h987.139c5.11 0 9.215 2.612 13.321 6.501 3.057 5.224 5.11 10.448 5.11 16.949v139.42c0 6.501-2.053 11.725-5.11 16.949-4.106 3.889-8.212 6.501-13.321 6.501h-987.139c-5.11 0-9.215-2.612-13.321-6.501-3.057-5.224-5.11-10.448-5.11-16.949v-139.42c0-6.501 2.053-11.725 5.11-16.949v0 0zM5.11 771.097c4.106-3.947 8.212-6.501 13.321-6.501h987.139c5.11 0 9.215 2.554 13.321 6.501 3.057 5.224 5.11 10.39 5.11 16.949v139.362c0 6.559-2.053 11.725-5.11 16.949-4.106 3.889-8.212 6.501-13.321 6.501h-987.139c-5.11 0-9.215-2.612-13.321-6.501-3.057-5.224-5.11-10.39-5.11-16.949v-139.362c0-6.559 2.053-11.725 5.11-16.949v0 0zM355.129 212.198c4.212-3.947 8.424-6.559 13.666-6.559h637.672c5.242 0 9.454 2.612 13.666 6.559 3.136 5.166 5.242 10.39 5.242 16.891v139.42c0 6.501-2.106 11.725-5.242 16.949-4.212 3.889-8.424 6.501-13.666 6.501h-637.672c-5.242 0-9.454-2.612-13.666-6.501-3.136-5.224-5.242-10.448-5.242-16.949v-139.42c0-6.501 2.106-11.725 5.242-16.891v0 0zM355.129 492.257c4.212-3.889 8.424-6.501 13.666-6.501h637.672c5.242 0 9.454 2.612 13.666 6.501 3.136 5.224 5.242 10.448 5.242 16.949v139.42c0 6.501-2.106 11.725-5.242 16.949-4.212 3.889-8.424 6.501-13.666 6.501h-637.672c-5.242 0-9.454-2.612-13.666-6.501-3.136-5.224-5.242-10.448-5.242-16.949v-139.42c0-6.501 2.106-11.725 5.242-16.949v0 0zM5.587 421.793l180.272-209.807c3.342-3.949 7.831-6.562 13.418-6.562 5.637 0 10.076 2.613 14.565 6.562 4.489 5.168 5.587 10.395 5.587 16.898v419.731c0 6.504-1.097 11.73-5.587 16.956-4.489 3.891-8.929 6.504-14.565 6.504-5.587 0-10.076-2.613-13.418-6.504l-180.272-209.865c-3.342-3.891-5.587-10.453-5.587-16.956s2.245-13.008 5.587-16.956v0 0z" data-tags="dedent" />
<glyph unicode="&#xe101;" d="M516.436 163.878c270.917 0 490.54 117.655 490.54 262.789s-219.622 262.789-490.54 262.789c-270.917 0-490.54-117.655-490.54-262.789s219.622-262.789 490.54-262.789zM795.9 399.099c-5.28-1.761-13.637-3.862-25.077-6.306s-18.917-4.839-22.436-7.186c-5.377-3.813-8.066-8.652-8.066-14.518 0-5.767 2.15-10.754 6.452-14.957s9.777-6.306 16.425-6.306c7.429 0 14.518 2.445 21.263 7.333 4.986 3.715 8.261 8.261 9.825 13.637 1.075 3.519 1.612 10.217 1.612 20.091v8.212zM740.76 432.533l-37.394 6.745c4.206 15.056 11.438 26.201 21.704 33.435s25.517 10.852 45.754 10.852c18.379 0 32.065-2.176 41.061-6.526s15.324-9.873 18.99-16.572c3.667-6.697 5.499-18.991 5.499-36.882l-0.44-48.099c0-13.687 0.66-23.781 1.979-30.283s3.788-13.467 7.406-20.898h-40.768c-1.075 2.737-2.396 6.794-3.959 12.172-0.684 2.445-1.173 4.057-1.466 4.839-7.039-6.844-14.566-11.976-22.583-15.398s-16.571-5.133-25.664-5.133c-16.034 0-28.67 4.351-37.908 13.053s-13.858 19.699-13.858 32.995c0 8.8 2.102 16.645 6.306 23.536s10.094 12.172 17.672 15.837c7.577 3.667 18.501 6.868 32.776 9.604 19.26 3.617 32.605 6.989 40.035 10.119v4.107c0 7.92-1.955 13.565-5.866 16.939s-11.292 5.060-22.145 5.060c-7.333 0-13.053-1.441-17.158-4.326s-7.429-7.943-9.971-15.179v0zM677.079 480.046v-32.848h-28.156v-62.765c0-12.709 0.269-20.116 0.807-22.218s1.761-3.837 3.667-5.206c1.907-1.37 4.23-2.054 6.966-2.054 3.813 0 9.337 1.319 16.571 3.959l3.519-31.97c-9.58-4.106-20.431-6.16-32.556-6.16-7.43 0-14.127 1.246-20.091 3.739s-10.339 5.719-13.125 9.679c-2.786 3.959-4.716 9.312-5.792 16.058-0.879 4.79-1.319 14.468-1.319 29.036v67.898h-18.917v32.848h18.917v30.943l41.354 24.050v-54.993h28.156zM526.876 415.521c-0.293 11.928-3.373 20.996-9.238 27.202s-13.004 9.312-21.409 9.312c-8.995 0-16.425-3.275-22.29-9.824s-8.749-15.447-8.652-26.69h61.591zM524.529 373.874l41.061-6.893c-5.281-15.056-13.614-26.517-25.003-34.388s-25.639-11.806-42.747-11.806c-27.081 0-47.122 8.848-60.124 26.542-10.265 14.175-15.398 32.065-15.398 53.673 0 25.81 6.745 46.023 20.238 60.638s30.551 21.924 51.179 21.924c23.171 0 41.451-7.65 54.846-22.95s19.797-38.739 19.21-70.316h-103.24c0.293-12.222 3.617-21.728 9.971-28.522s14.274-10.193 23.757-10.193c6.452 0 11.878 1.761 16.278 5.281s7.723 9.189 9.971 17.012v0zM257.009 418.015v-57.485h40.181c15.643 0 25.564 0.44 29.769 1.319 6.452 1.173 11.707 4.033 15.764 8.578s6.086 10.631 6.086 18.258c0 6.452-1.564 11.928-4.692 16.425s-7.65 7.772-13.565 9.824c-5.915 2.054-18.746 3.079-38.495 3.079h-35.049zM257.009 503.509v-49.714h28.45c16.912 0 27.423 0.244 31.53 0.734 7.43 0.88 13.271 3.447 17.523 7.698s6.379 9.849 6.379 16.79c0 6.647-1.832 12.048-5.498 16.204s-9.117 6.673-16.35 7.551c-4.302 0.488-16.669 0.734-37.102 0.734h-24.93zM213.603 539.292h85.936c17.012 0 29.696-0.709 38.056-2.126s15.837-4.375 22.436-8.873c6.598-4.497 12.098-10.485 16.497-17.963s6.598-15.863 6.598-25.15c0-10.070-2.711-19.308-8.138-27.715s-12.783-14.713-22.071-18.917c13.1-3.813 23.171-10.315 30.209-19.505s10.559-19.992 10.559-32.409c0-9.777-2.274-19.284-6.819-28.522s-10.754-16.619-18.624-22.145c-7.871-5.522-17.572-8.921-29.109-10.193-7.234-0.782-24.685-1.271-52.352-1.466h-73.176v214.984z" data-tags="beta tag" />
<glyph unicode="&#xe113;" d="M356.571 566.857h128v-128h-128zM548.571 566.857h128v-128h-128zM740.571 566.857h128v-128h-128zM164.571 182.857h128v-128h-128zM356.571 182.857h128v-128h-128zM548.571 182.857h128v-128h-128zM356.571 374.857h128v-128h-128zM548.571 374.857h128v-128h-128zM740.571 374.857h128v-128h-128zM164.571 374.857h128v-128h-128zM868.571 950.857v-64h-128v64h-448v-64h-128v64h-128v-1024h960v1024h-128zM932.571-9.143h-832v704h832v-704z" data-tags="calendar, date, schedule, time, day" />
<glyph unicode="&#xe114;" d="M797.562 438.857l-578.259 514.007v-1028.016l578.259 514.007z" data-tags="right, triangle" />
<glyph unicode="&#xe115;" d="M226.438 438.857l578.259 514.007v-1028.016l-578.259 514.007z" data-tags="arrow left, triangle" />
<glyph unicode="&#xe116;" d="M512 80.153l514.007 578.259h-1028.016l514.007-578.259z" data-tags="arrow down, triangle" />
<glyph unicode="&#xe117;" d="M512 724.419l514.007-578.259h-1028.016l514.007 578.259z" data-tags="arrow up, triangle" />
<glyph unicode="&#xe118;" d="M541.772 447.283c0 0-268.989 270.217-264.914 270.217-102.474 117.226 44.519 312.894 169.425 198.923 0 0 252.648-278.352 363.612-399.109 27.971-30.44 30.937-110.262 0-144.616-107.818-119.729-376.416-411.542-376.416-411.542-93.768-114.631-267.568 85.047-160.696 203.229l268.989 282.897z" data-tags="bracket, right" />
<glyph unicode="&#xe119;" d="M514.228 447.283c0 0 268.989 270.217 264.914 270.217 102.474 117.226-44.519 312.894-169.425 198.923 0 0-252.648-278.352-363.612-399.109-27.971-30.44-30.937-110.262 0-144.616 107.818-119.729 376.416-411.542 376.416-411.542 93.768-114.631 267.568 85.047 160.696 203.229l-268.989 282.897z" data-tags="bracket, left" />
<glyph unicode="&#xe150;" d="M426.666 950.854v0c235.641 0 426.664-173.914 426.664-388.447s-191.026-388.447-426.664-388.447c-22.63 0-44.841 1.62-66.519 4.711-91.65-102.695-197.487-121.105-303.258-123.815v25.136c57.113 31.352 103.111 88.465 103.111 153.732 0 9.106-0.634 18.047-1.805 26.795-96.497 71.213-158.195 179.987-158.195 301.89 0 214.533 191.026 388.447 426.664 388.447l0.002-0.003zM885.332 80.171c0-55.941 32.279-104.898 81.779-131.773v-21.541c-91.666 2.317-175.809 18.1-255.236 106.125-18.792-2.651-38.038-4.040-57.65-4.040-84.863 0-163.028 25.759-225.435 69.039 128.599 0.506 250.007 46.854 342.074 130.672 46.406 42.252 83.016 91.824 108.813 147.346 27.348 58.865 41.215 121.583 41.215 186.404 0 10.447-0.401 20.836-1.119 31.169 64.505-59.934 104.228-141.621 104.228-231.676 0-104.49-53.475-197.724-137.103-258.763-1.013-7.497-1.565-15.16-1.565-22.965v0 0z" data-tags="bubble, comment, chat, talk" />
<glyph unicode="&#xe29a;" d="M11.978 366.566c9.529-8.358 19.111-13.149 31.035-13.149h94.436c16.715-71.652 51.37-133.776 103.912-185.199 51.424-52.541 113.547-87.197 185.253-103.912v-94.436c0-11.924 4.738-21.506 13.095-31.035 8.411-8.358 17.94-11.978 29.917-11.978h84.801c11.978 0 21.506 3.62 29.864 11.978 8.358 9.529 13.149 19.111 13.149 31.035v94.436c71.706 16.715 133.829 51.37 185.199 103.912 52.595 51.424 87.25 113.547 103.965 185.199h94.383c11.978 0 21.506 4.791 31.088 13.149 8.358 8.358 11.924 17.94 11.924 29.917v84.801c0 11.978-3.567 21.506-11.924 29.864-9.582 8.358-19.111 13.149-31.088 13.149h-94.383c-16.715 71.706-51.37 133.829-103.965 185.199-51.37 52.595-113.494 87.25-185.199 103.965v94.383c0 11.978-4.791 21.506-13.149 31.088-8.358 8.358-17.886 11.924-29.864 11.924h-84.801c-11.978 0-21.506-3.567-29.917-11.924-8.358-9.582-13.095-19.111-13.095-31.088v-94.383c-71.706-16.715-133.829-51.37-185.253-103.965-52.541-51.37-87.197-113.494-103.912-185.199h-94.436c-11.924 0-21.506-4.791-31.035-13.149-8.358-8.358-11.978-17.886-11.978-29.864v-84.801c0-11.978 3.62-21.56 11.978-29.917v0zM298.747 353.417c11.924 0 21.506 4.791 29.864 13.149s13.149 17.94 13.149 29.917v84.801c0 11.978-4.791 21.506-13.149 29.864s-17.94 13.149-29.864 13.149h-72.877c14.32 47.804 39.393 89.645 75.272 125.471 35.826 35.826 77.668 60.952 125.471 75.272v-72.877c0-11.924 4.738-21.506 13.095-29.864 8.411-8.358 17.94-13.149 29.917-13.149h84.801c11.978 0 21.506 4.791 29.864 13.149s13.149 17.94 13.149 29.864v72.877c47.804-14.32 89.645-39.446 125.471-75.272s60.952-77.668 75.272-125.471h-72.877c-11.978 0-21.506-4.791-29.864-13.149s-13.149-17.886-13.149-29.864v-84.801c0-11.978 4.791-21.56 13.149-29.917s17.886-13.149 29.864-13.149h72.877c-14.32-47.75-39.446-89.592-75.272-125.418-35.826-35.879-77.668-60.952-125.471-75.272v72.877c0 11.924-4.791 21.506-13.149 29.864s-17.886 13.149-29.864 13.149h-84.801c-11.978 0-21.506-4.791-29.917-13.149-8.358-8.358-13.095-17.94-13.095-29.864v-72.877c-47.804 14.32-89.645 39.393-125.471 75.272-35.879 35.826-60.952 77.668-75.272 125.418h72.877z" data-tags="more" />
<glyph unicode="&#xe370;" d="M1024 438.857c0-282.77-229.23-512-512-512s-512 229.23-512 512c0 282.77 229.23 512 512 512s512-229.23 512-512z" />
<glyph unicode="&#xe371;" d="M806.884 566.106c5.018-4.934 5.044-13.013 0.077-18.024l-370.585-370.019c-4.967-4.985-13.134-4.985-18.1 0l-83.078 82.988c-4.992 4.96-13.159 13.090-18.1 18.075l-100 99.887c-5.018 4.934-5.018 13.090 0 18.075l83.103 82.988c4.967 4.96 13.134 4.96 18.1 0l100-99.861c4.992-4.96 13.159-4.96 18.1 0l268.639 268.24c4.992 4.96 13.159 4.985 18.177 0.051l83.666-82.4z" />
<glyph unicode="&#xe48c;" d="M14.451 5.654c10.265-11.51 23.646-16.797 39.090-16.797h183.076c15.443 0 28.824 5.287 39.090 16.797 11.319 10.527 16.451 24.189 16.451 39.909v186.962c0 15.72-5.133 29.383-16.451 39.909-10.265 11.557-23.646 16.797-38.035 16.797h-55.541v111.307h294.159v-111.307h-55.541c-15.443 0-28.824-5.24-39.090-16.797-11.319-10.527-16.451-24.189-16.451-39.909v-186.962c0-15.72 5.133-29.383 16.451-39.909 10.265-11.51 23.647-16.797 39.090-16.797h183.076c15.443 0 28.824 5.287 39.090 16.797 11.319 10.527 16.451 24.189 16.451 39.909v186.962c0 15.72-5.133 29.383-16.451 39.909-10.265 11.557-23.646 16.797-38.035 16.797h-55.541v111.307h294.159v-111.307h-55.541c-15.443 0-28.779-5.24-39.090-16.797-11.319-10.527-16.451-24.189-16.451-39.909v-186.962c0-15.72 5.133-29.383 16.451-39.909 10.312-11.51 23.647-16.797 39.090-16.797h183.076c15.443 0 28.824 5.287 39.090 16.797 11.319 10.527 16.451 24.189 16.451 39.909v186.962c0 15.72-5.133 29.383-16.451 39.909-10.265 11.557-23.647 16.797-38.035 16.797h-55.541v111.307c0 19.978-7.194 37.805-21.63 52.495-14.39 14.738-31.849 22.084-51.417 22.084h-294.159v113.412h55.541c14.39 0 27.771 5.24 38.035 16.797 11.319 10.48 16.451 24.142 16.451 39.909v186.915c0 15.768-5.133 29.429-16.451 39.909-10.265 11.557-23.646 16.797-39.090 16.797h-183.076c-15.443 0-28.824-5.24-39.090-16.797-11.319-10.48-16.451-24.142-16.451-39.909v-186.915c0-15.768 5.133-29.429 16.451-39.909 10.265-11.557 23.647-16.797 39.090-16.797h55.541v-113.412h-294.159c-19.568 0-37.073-7.346-51.462-22.084-14.39-14.691-21.584-32.517-21.584-52.495v-111.307h-55.541c-15.443 0-28.824-5.24-39.090-16.797-11.319-10.527-16.451-24.189-16.451-39.909v-186.962c0-15.72 5.133-29.383 16.451-39.909z" data-tags="schema" />
<glyph unicode="&#xe600;" d="M0 865.313c0 47.245 38.273 85.544 85.544 85.544h852.911c47.245 0 85.544-38.273 85.544-85.544v-852.911c0-47.245-38.273-85.544-85.544-85.544h-852.911c-47.245 0-85.544 38.273-85.544 85.544v852.911zM487.546 421.386c0 0 135.514 123.849 133.46 123.849 51.625 53.729-22.428 143.41-85.354 91.173 0 0-127.281-127.578-183.184-182.925-14.092-13.952-15.586-50.537 0-66.282 54.318-54.876 189.634-188.623 189.634-188.623 47.239-52.539 134.797 38.98 80.957 93.147l-135.514 129.661z" data-tags="bracket btn solid" />
<glyph unicode="&#xe601;" d="M1024 865.313c0 47.245-38.273 85.544-85.544 85.544h-852.911c-47.245 0-85.544-38.273-85.544-85.544v-852.911c0-47.245 38.273-85.544 85.544-85.544h852.911c47.245 0 85.544 38.273 85.544 85.544v852.911zM536.454 421.386c0 0-135.514 123.849-133.46 123.849-51.625 53.729 22.428 143.41 85.354 91.173 0 0 127.281-127.578 183.184-182.925 14.092-13.952 15.586-50.537 0-66.282-54.318-54.876-189.634-188.623-189.634-188.623-47.239-52.539-134.797 38.98-80.957 93.147l135.514 129.661z" data-tags="bracket btn solid" />
<glyph unicode="&#xe602;" d="M838.4 502.857c31.68 0 57.6-21.6 57.6-48v-480c0-26.4-25.92-48-57.6-48h-652.8c-31.68 0-57.6 21.6-57.6 48v480c0 26.4 25.92 48 57.6 48h456.492l67.548 104.015c19.321 29.752 4.942 73.502-32.054 97.527l-134.187 87.142c-36.996 24.025-82.812 19.367-102.133-10.385l-104.023-160.182-134.187 87.142 104.023 160.182c57.963 89.255 195.412 103.231 306.399 31.154l134.187-87.142c110.988-72.076 143.127-183.871 85.164-273.125l-21.172-36.328h26.744z" data-tags="close, close window" />
<glyph unicode="&#xe603;" d="M838.4 541.257h-19.2v204.8c0 112.928-103.356 204.8-230.4 204.8h-153.6c-127.044 0-230.4-91.872-230.4-204.8v-204.8h-19.2c-31.68 0-57.6-23.040-57.6-51.2v-512c0-28.16 25.92-51.2 57.6-51.2h652.8c31.68 0 57.6 23.040 57.6 51.2v512c0 28.16-25.92 51.2-57.6 51.2v0zM358.4 746.057c0 37.643 34.452 68.267 76.8 68.267h153.6c42.348 0 76.8-30.624 76.8-68.267v-204.8h-307.2v204.8z" data-tags="close, close window" />
<glyph unicode="&#xe604;" d="M450.645 118.857v-182.147c0-5.282 5.378-9.852 11.642-9.852h103.89c6.241 0 11.597 4.571 11.597 9.852v182.147h119.882c6.241 0 8.215 3.591 4.403 7.759l-183.116 181.127c-3.813 4.168-10.076 4.148-13.889-0.038l-183.116-181.070c-3.813-4.168-1.816-7.778 4.403-7.778h124.305zM450.645 758.857v182.147c0 5.282 5.378 9.852 11.642 9.852h103.89c6.241 0 11.597-4.571 11.597-9.852v-182.147h119.882c6.241 0 8.215-3.591 4.403-7.759l-183.116-181.127c-3.813-4.168-10.076-4.148-13.889 0.038l-183.116 181.070c-3.813 4.168-1.816 7.778 4.403 7.778h124.305zM98.462 404.975h861.538v64h-896v-64h34.462z" data-tags="collapse all, accordion" />
<glyph unicode="&#xe605;" d="M518.26 432.585c0 0 270.217 268.989 270.217 264.914 117.226 102.474 312.894-44.519 198.923-169.425 0 0-278.352-252.648-399.109-363.612-30.44-27.971-110.262-30.937-144.616 0-119.729 107.818-411.542 376.416-411.542 376.416-114.631 93.768 85.047 267.568 203.229 160.696l282.897-268.989z" horiz-adv-x="1025" data-tags="bracket_down, expanded, next" />
<glyph unicode="&#xe606;" d="M518.26 445.129c0 0 270.217-268.989 270.217-264.914 117.226-102.474 312.894 44.519 198.923 169.425 0 0-278.352 252.648-399.109 363.612-30.44 27.971-110.262 30.937-144.616 0-119.729-107.818-411.542-376.416-411.542-376.416-114.631-93.768 85.047-267.568 203.229-160.696l282.897 268.989z" horiz-adv-x="1025" data-tags="bracket_up, up, previous" />
<glyph unicode="&#xe607;" d="M28.444 893.975v0-910.238c0-15.794 12.666-28.436 28.436-28.436h910.238c15.794 0 28.436 12.666 28.436 28.436v910.238c0 15.794-12.666 28.436-28.436 28.436h-910.238c-15.794 0-28.436-12.666-28.436-28.436v0 0zM0 893.975c0 31.414 25.312 56.882 56.882 56.882h910.238c31.414 0 56.88-25.312 56.88-56.882v-910.238c0-31.414-25.312-56.88-56.88-56.88h-910.238c-31.414 0-56.882 25.312-56.882 56.88v910.238zM524.141 427.21c0 0 90.342 82.566 88.974 82.566 34.418 35.82-14.952 95.606-56.904 60.782 0 0-84.854-85.052-122.122-121.95-9.394-9.3-10.39-33.692 0-44.188 36.212-36.584 126.424-125.75 126.424-125.75 31.494-35.026 89.866 25.986 53.972 62.098l-90.344 86.442z" data-tags="bracket_button, back" />
<glyph unicode="&#xe608;" d="M28.444 893.975v0-910.238c0-15.794 12.666-28.436 28.436-28.436h910.238c15.794 0 28.436 12.666 28.436 28.436v910.238c0 15.794-12.666 28.436-28.436 28.436h-910.238c-15.794 0-28.436-12.666-28.436-28.436v0 0zM0 893.975c0 31.414 25.312 56.882 56.882 56.882h910.238c31.414 0 56.88-25.312 56.88-56.882v-910.238c0-31.414-25.312-56.88-56.88-56.88h-910.238c-31.414 0-56.882 25.312-56.882 56.88v910.238zM549.637 412.988c0 0-90.342 82.566-88.974 82.566-34.418 35.82 14.952 95.606 56.904 60.782 0 0 84.854-85.052 122.122-121.95 9.394-9.3 10.39-33.692 0-44.188-36.212-36.584-126.424-125.75-126.424-125.75-31.494-35.026-89.866 25.986-53.972 62.098l90.344 86.442z" data-tags="bracket_button, forward" />
<glyph unicode="&#xe609;" d="M28.446 893.979v0-910.245c0-15.794 12.666-28.434 28.434-28.434h910.245c15.794 0 28.434 12.666 28.434 28.434v910.243c0 15.794-12.668 28.434-28.434 28.434h-910.245c-15.794 0-28.434-12.668-28.434-28.434v0 0.002zM0 893.979c0 31.414 25.312 56.878 56.878 56.878h910.245c31.414 0 56.878-25.312 56.878-56.878v-910.245c0-31.414-25.314-56.879-56.878-56.879h-910.245c-31.414 0-56.878 25.314-56.878 56.878v910.247zM484.725 444.837c0 0 124.101 113.419 122.223 113.419 47.278 49.204-20.539 131.331-78.167 83.495 0 0-116.562-116.833-167.756-167.521-12.905-12.775-14.274-46.281 0-60.7 49.745-50.256 173.665-172.738 173.665-172.738 43.262-48.115 123.444 35.698 74.14 85.301l-124.105 118.743z" data-tags="bracket_button, back" />
<glyph unicode="&#xe60b;" d="M987.429 438.857c0-262.572-212.856-475.429-475.429-475.429s-475.429 212.856-475.429 475.429c0 262.572 212.856 475.429 475.429 475.429s475.429-212.856 475.429-475.429v0 0zM421.442 665.252v-344.699l339.592 172.339-339.592 172.36zM421.442 167.183h75.469v153.268l-75.469-38.291v-114.978z" data-tags="warning" />
<glyph unicode="&#xe60d;" d="M987.429 438.857v0c0 262.572-212.856 475.429-475.429 475.429s-475.429-212.856-475.429-475.429c0-262.572 212.856-475.429 475.429-475.429s475.429 212.856 475.429 475.429zM445.559 225.202v10.723c0 33.648 19.975 50.46 58.19 50.46h14.775c40.826 0 59.066-16.813 59.066-50.501v-10.692c0-33.657-19.108-50.46-59.066-50.46h-14.777c-38.214 0-58.19 16.824-58.19 50.472l0.002-0.002zM474.216 368.241l-33.884 245.566c-10.415 42.805 15.643 68.066 59.95 68.048h21.717c46.040 0 72.089-25.24 61.674-68.077l-33.874-245.546c-6.084-22.936-13.901-34.398-32.153-34.398h-13.024c-16.508 0-24.334 11.464-30.409 34.409l0.002-0.002z" data-tags="error" />
<glyph unicode="&#xe60f;" d="M987.429 438.857v0c0 262.572-212.856 475.429-475.429 475.429s-475.429-212.856-475.429-475.429c0-262.572 212.856-475.429 475.429-475.429s475.429 212.856 475.429 475.429zM487.359 626.319c0 30.264 28.882 52.81 71.775 52.81 43.769 0 68.278-16.092 68.278-39.271 0-30.255-28.893-52.819-71.773-52.819-43.771 0-68.278 16.114-68.278 39.28v0h-0.002zM398.95 301.116l56.019 192.543c9.62 32.831 25.378 43.81 56.897 43.81h13.128c33.269 0 63.031-9.661 53.402-43.81l-56.908-195.13c-9.62-34.773-1.749-48.299 34.149-52.165 0.88-0.644-6.134-32.207-71.784-32.207-79.658 0-99.779 36.071-84.901 86.957v0l-0.002 0.002z" data-tags="info" />
<glyph unicode="&#xe611;" d="M987.429 438.857c0 262.572-212.856 475.429-475.429 475.429s-475.429-212.856-475.429-475.429c0-262.572 212.856-475.429 475.429-475.429s475.429 212.856 475.429 475.429zM458.618 263.736l-166.441 169.436 77.714 75.485 89.156-90.731 198.495 199.853 77.285-75.914-276.209-278.129z" data-tags="success" />
<glyph unicode="&#xe613;" d="M291.329 438.857l-220.998-220.998c-60.022-60.022-60.609-159.407 0.327-220.343 61.361-61.361 159.588-61.084 220.343-0.327l220.998 220.998 220.998-220.998c60.755-60.755 158.982-61.034 220.343 0.327 60.937 60.937 60.35 160.322 0.327 220.343l-220.998 220.998 220.998 220.998c60.022 60.022 60.609 159.407-0.327 220.343-61.361 61.361-159.588 61.084-220.343 0.327l-220.998-220.998-220.998 220.998c-60.755 60.755-158.982 61.034-220.343-0.327-60.937-60.937-60.35-160.322-0.327-220.343l220.998-220.998z" data-tags="close, close window" />
<glyph unicode="&#xe614;" d="M450.645 118.857v182.147c0 5.282 5.378 9.852 11.642 9.852h103.89c6.241 0 11.597-4.571 11.597-9.852v-182.147h119.882c6.241 0 8.215-3.591 4.403-7.759l-183.116-181.127c-3.813-4.168-10.076-4.148-13.889 0.038l-183.116 181.070c-3.813 4.168-1.816 7.778 4.403 7.778h124.305zM450.645 758.857v-182.147c0-5.282 5.378-9.852 11.642-9.852h103.89c6.241 0 11.597 4.571 11.597 9.852v182.147h119.882c6.241 0 8.215 3.591 4.403 7.759l-183.116 181.127c-3.813 4.168-10.076 4.148-13.889-0.038l-183.116-181.070c-3.813-4.168-1.816-7.778 4.403-7.778h124.305zM98.462 404.975h861.538v64h-896v-64h34.462z" data-tags="expand, expand all" />
<glyph unicode="&#xe616;" d="M1017.561 57.201l-256.177 256.221c41.665 64.545 66.245 141.207 66.245 223.665 0 228.154-185.748 413.771-413.858 413.771-228.197 0-413.771-185.617-413.771-413.771 0-228.197 185.574-413.858 413.771-413.858 82.414 0 159.076 24.493 223.665 66.202l256.177-256.177c8.499-8.542 22.532-8.542 31.031 0l92.918 92.918c8.586 8.542 8.586 22.488 0 31.031v0zM131.444 537.086c0 155.633 126.65 282.326 282.326 282.326 155.72 0 282.37-126.694 282.37-282.326 0-155.72-126.65-282.414-282.37-282.414-155.676 0-282.326 126.694-282.326 282.414v0z" data-tags="magnifier" />
<glyph unicode="&#xe61c;" d="M995.554 893.979v0-910.245c0-15.794-12.666-28.434-28.434-28.434h-910.245c-15.794 0-28.434 12.666-28.434 28.434v910.243c0 15.794 12.668 28.434 28.434 28.434h910.245c15.794 0 28.434-12.668 28.434-28.434v0 0.002zM1024 893.979c0 31.414-25.312 56.878-56.878 56.878h-910.245c-31.414 0-56.878-25.312-56.878-56.878v-910.245c0-31.414 25.314-56.879 56.878-56.879h910.245c31.414 0 56.878 25.314 56.878 56.878v910.247zM539.275 444.837c0 0-124.101 113.419-122.223 113.419-47.278 49.204 20.539 131.331 78.167 83.495 0 0 116.562-116.833 167.756-167.521 12.905-12.775 14.274-46.281 0-60.7-49.745-50.256-173.665-172.738-173.665-172.738-43.262-48.115-123.444 35.698-74.14 85.301l124.105 118.743z" data-tags="bracket_button, forward" />
<glyph unicode="&#xe620;" d="M0 865.313v-852.911c0-47.271 38.3-85.544 85.544-85.544h852.911c47.271 0 85.544 38.3 85.544 85.544v852.911c0 47.271-38.3 85.544-85.544 85.544h-852.911c-47.271 0-85.544-38.3-85.544-85.544zM640 417.524l-170.667-149.333v298.667l170.667-149.333z" data-tags="tri_btn" />
<glyph unicode="&#xe621;" d="M1024 865.313v-852.911c0-47.271-38.3-85.544-85.544-85.544h-852.911c-47.271 0-85.544 38.3-85.544 85.544v852.911c0 47.271 38.3 85.544 85.544 85.544h852.911c47.271 0 85.544-38.3 85.544-85.544zM384 417.524l170.667-149.333v298.667l-170.667-149.333z" data-tags="tri_btn" />
<glyph unicode="&#xe902;" d="M1024 342.857l-192 192v288h-128v-160l-192 192-512-512v-32h128v-320h320v192h128v-192h320v320h128z" data-tags="home, house" />
<glyph unicode="&#xe905;" d="M864 950.857c88.364 0 160-71.634 160-160 0-36.020-11.91-69.258-32-96l-64-64-224 224 64 64c26.742 20.090 59.978 32 96 32zM64 214.857l-64-288 288 64 592 592-224 224-592-592zM715.578 587.279l-448-448-55.156 55.156 448 448 55.156-55.156z" data-tags="pencil, write, edit" />
<glyph unicode="&#xe90d;" d="M959.884 877.714c0.040-0.039 0.082-0.087 0.116-0.133v-877.451c-0.034-0.046-0.076-0.094-0.116-0.133h-895.77c-0.040 0.039-0.082 0.087-0.114 0.133v877.454c0.034 0.046 0.076 0.094 0.114 0.13h895.77zM960 950.857h-896c-35.2 0-64-32.914-64-73.143v-877.714c0-40.229 28.8-73.143 64-73.143h896c35.2 0 64 32.914 64 73.143v877.714c0 40.229-28.8 73.143-64 73.143v0zM832 694.857c0-60.594-42.98-109.714-96-109.714s-96 49.12-96 109.714c0 60.594 42.98 109.714 96 109.714s96-49.12 96-109.714v0zM896 73.143h-768v146.286l224 438.857 256-365.714h64l224 219.429v-438.857z" data-tags="image, picture, photo, graphic" />
<glyph unicode="&#xe91a;" d="M1024 521.601c0 200.926-58.792 363.938-131.482 365.226 0.292 0.006 0.578 0.030 0.872 0.030h-82.942c0 0-194.8-146.336-475.23-203.754-8.56-45.292-14.030-99.274-14.030-161.502s5.466-116.208 14.030-161.5c280.428-57.418 475.23-203.756 475.23-203.756h82.942c-0.292 0-0.578 0.024-0.872 0.032 72.696 1.288 131.482 164.298 131.482 365.224zM864.824 211.605c-9.382 0-19.532 9.742-24.746 15.548-12.63 14.064-24.792 35.96-35.188 63.328-23.256 61.232-36.066 143.31-36.066 231.124 0 87.81 12.81 169.89 36.066 231.122 10.394 27.368 22.562 49.266 35.188 63.328 5.214 5.812 15.364 15.552 24.746 15.552 9.38 0 19.536-9.744 24.744-15.552 12.634-14.064 24.796-35.958 35.188-63.328 23.258-61.23 36.068-143.312 36.068-231.122 0-87.804-12.81-169.888-36.068-231.124-10.39-27.368-22.562-49.264-35.188-63.328-5.208-5.806-15.36-15.548-24.744-15.548zM251.812 521.601c0 51.95 3.81 102.43 11.052 149.094-47.372-6.554-88.942-10.324-140.34-10.324-67.058 0-67.058 0-67.058 0l-55.466-94.686v-88.17l55.46-94.686c0 0 0 0 67.060 0 51.398 0 92.968-3.774 140.34-10.324-7.236 46.664-11.048 97.146-11.048 149.096zM368.15 308.685l-127.998 24.51 81.842-321.544c4.236-16.634 20.744-25.038 36.686-18.654l118.556 47.452c15.944 6.376 22.328 23.964 14.196 39.084l-123.282 229.152zM864.824 402.127c-3.618 0-7.528 3.754-9.538 5.992-4.87 5.42-9.556 13.86-13.562 24.408-8.962 23.6-13.9 55.234-13.9 89.078s4.938 65.478 13.9 89.078c4.006 10.548 8.696 18.988 13.562 24.408 2.010 2.24 5.92 5.994 9.538 5.994 3.616 0 7.53-3.756 9.538-5.994 4.87-5.42 9.556-13.858 13.56-24.408 8.964-23.598 13.902-55.234 13.902-89.078 0-33.842-4.938-65.478-13.902-89.078-4.004-10.548-8.696-18.988-13.56-24.408-2.008-2.238-5.92-5.992-9.538-5.992z" data-tags="bullhorn, megaphone, announcement, advertisement, news" />
<glyph unicode="&#xe926;" d="M917.806 721.781c-22.212 30.292-53.174 65.7-87.178 99.704s-69.412 64.964-99.704 87.178c-51.574 37.82-76.592 42.194-90.924 42.194h-496c-44.112 0-80-35.888-80-80v-864c0-44.112 35.888-80 80-80h736c44.112 0 80 35.888 80 80v624c0 14.332-4.372 39.35-42.194 90.924v0zM785.374 776.231c30.7-30.7 54.8-58.398 72.58-81.374h-153.954v153.946c22.984-17.78 50.678-41.878 81.374-72.572v0zM896 6.857c0-8.672-7.328-16-16-16h-736c-8.672 0-16 7.328-16 16v864c0 8.672 7.328 16 16 16 0 0 495.956 0.002 496 0v-224c0-17.672 14.326-32 32-32h224v-624zM736 374.857h-448c-17.672 0-32 14.326-32 32s14.328 32 32 32h448c17.674 0 32-14.326 32-32s-14.326-32-32-32zM736 246.857h-448c-17.672 0-32 14.326-32 32s14.328 32 32 32h448c17.674 0 32-14.326 32-32s-14.326-32-32-32zM736 118.857h-448c-17.672 0-32 14.326-32 32s14.328 32 32 32h448c17.674 0 32-14.326 32-32s-14.326-32-32-32z" data-tags="file-text, file, document, list, paper, page" />
<glyph unicode="&#xe935;" d="M976 950.857h-384c-26.4 0-63.274-15.274-81.942-33.942l-476.116-476.116c-18.668-18.668-18.668-49.214 0-67.882l412.118-412.118c18.668-18.668 49.214-18.668 67.882 0l476.118 476.118c18.666 18.666 33.94 55.54 33.94 81.94v384c0 26.4-21.6 48-48 48zM736 566.857c-53.020 0-96 42.98-96 96s42.98 96 96 96 96-42.98 96-96-42.98-96-96-96z" data-tags="tag" />
<glyph unicode="&#xe94e;" d="M658.744 201.601l-210.744 210.746v282.51h128v-229.49l173.256-173.254zM512 950.857c-282.77 0-512-229.23-512-512s229.23-512 512-512 512 229.23 512 512-229.23 512-512 512zM512 54.857c-212.078 0-384 171.922-384 384s171.922 384 384 384c212.078 0 384-171.922 384-384s-171.922-384-384-384z" data-tags="clock, time, schedule" />
<glyph unicode="&#xe951;" d="M1025.5 150.857c0 288-256 224-256 448 0 18.56-1.788 34.42-5.048 47.928-16.83 113.018-92.156 203.72-189.772 231.36 0.866 3.948 1.32 8.032 1.32 12.21 0 33.278-28.8 60.502-64 60.502s-64-27.224-64-60.5c0-4.18 0.456-8.264 1.32-12.21-109.47-30.998-190.914-141.298-193.254-273.442-0.040-1.92-0.066-3.864-0.066-5.846 0-224.002-256-160.002-256-448.002 0-76.226 170.59-139.996 398.97-156.080 21.524-40.404 64.056-67.92 113.030-67.92s91.508 27.516 113.030 67.92c228.38 16.084 398.97 79.854 398.97 156.080 0 0.228-0.026 0.456-0.028 0.682l1.528-0.682zM826.246 96.761c-54.23-14.47-118.158-24.876-186.768-30.648-5.704 65.418-60.582 116.744-127.478 116.744s-121.774-51.326-127.478-116.744c-68.608 5.772-132.538 16.178-186.768 30.648-74.63 19.914-110.31 42.19-123.368 54.096 13.058 11.906 48.738 34.182 123.368 54.096 86.772 23.152 198.372 35.904 314.246 35.904s227.474-12.752 314.246-35.904c74.63-19.914 110.31-42.19 123.368-54.096-13.058-11.906-48.738-34.182-123.368-54.096z" data-tags="bell, alarm, notification" />
<glyph unicode="&#xe965;" d="M512 886.857c-141.384 0-269.376-57.32-362.032-149.978l-149.968 149.978v-384h384l-143.532 143.522c69.496 69.492 165.492 112.478 271.532 112.478 212.068 0 384-171.924 384-384 0-114.696-50.292-217.636-130.018-288l84.666-96c106.302 93.816 173.352 231.076 173.352 384 0 282.77-229.23 512-512 512z" data-tags="undo, ccw, arrow" />
<glyph unicode="&#xe966;" d="M0 374.857c0-152.924 67.048-290.184 173.35-384l84.666 96c-79.726 70.364-130.016 173.304-130.016 288 0 212.076 171.93 384 384 384 106.042 0 202.038-42.986 271.53-112.478l-143.53-143.522h384v384l-149.97-149.978c-92.654 92.658-220.644 149.978-362.030 149.978-282.77 0-512-229.23-512-512z" data-tags="redo, cw, arrow" />
<glyph unicode="&#xe96b;" d="M512 886.857c282.77 0 512-186.25 512-416 0-229.752-229.23-416-512-416-27.156 0-53.81 1.734-79.824 5.044-109.978-109.978-241.25-129.7-368.176-132.596v26.916c68.536 33.578 128 94.74 128 164.636 0 9.754-0.758 19.33-2.164 28.696-115.796 76.264-189.836 192.754-189.836 323.304 0 229.75 229.23 416 512 416z" data-tags="bubble, comment, chat, talk" />
<glyph unicode="&#xe971;" d="M584.818 217.432v60.052c80.211 45.202 145.635 157.891 145.635 270.599 0 180.973 0 327.68-218.453 327.68s-218.453-146.707-218.453-327.68c0-112.708 65.424-225.398 145.635-270.599v-60.052c-247.013-20.193-436.907-141.563-436.907-288.3h1019.449c0 146.737-189.893 268.106-436.907 288.3z" data-tags="user, profile, avatar, person, member" />
<glyph unicode="&#xe972;" d="M741.79 180.317v52.779c71.618 39.729 130.032 138.772 130.032 237.831 0 159.059 0 288-195.049 288s-195.047-128.942-195.047-288c0-99.062 58.414-198.105 130.032-237.831v-52.779c-220.548-17.749-390.095-124.42-390.095-253.387h910.222c0 128.967-169.548 235.641-390.095 253.387zM293.989 155.6c56.188 36.153 126.051 63.636 202.958 80.413-15.292 17.783-29.164 37.625-41.134 59.021-30.896 55.234-47.23 116.058-47.23 175.895 0 86.041 0 167.31 31.085 233.763 30.177 64.503 84.448 104.496 161.75 119.489-17.183 76.479-62.924 126.748-184.707 126.748-195.047 0-195.047-128.942-195.047-288 0-99.059 58.414-198.103 130.032-237.831v-52.779c-220.548-17.749-390.095-124.42-390.095-253.387h283.435c14.748 12.909 31.081 25.172 48.954 36.67v-0.002z" data-tags="users, group, team, members, community, collaborate" />
<glyph unicode="&#xe984;" d="M1024 566.857h-384l143.53 143.53c-72.53 72.526-168.96 112.47-271.53 112.47s-199-39.944-271.53-112.47c-72.526-72.53-112.47-168.96-112.47-271.53s39.944-199 112.47-271.53c72.53-72.526 168.96-112.47 271.53-112.47s199 39.944 271.528 112.472c6.056 6.054 11.86 12.292 17.456 18.668l96.32-84.282c-93.846-107.166-231.664-174.858-385.304-174.858-282.77 0-512 229.23-512 512s229.23 512 512 512c141.386 0 269.368-57.326 362.016-149.984l149.984 149.984v-384z" data-tags="spinner, loading, loading-wheel, refresh, repeat, busy, wait, arrow" />
<glyph unicode="&#xe989;" d="M1024 950.857h-416l160-160-192-192 96-96 192 192 160-160zM1024-73.143v416l-160-160-192 192-96-96 192-192-160-160zM0-73.143h416l-160 160 192 192-96 96-192-192-160 160zM0 950.857v-416l160 160 192-192 96 96-192 192 160 160z" data-tags="enlarge, expand, maximize, fullscreen" />
<glyph unicode="&#xe98a;" d="M576 502.857h416l-160 160 192 192-96 96-192-192-160 160zM576 374.857v-416l160 160 192-192 96 96-192 192 160 160zM448 374.861h-416l160-160-192-192 96-96 192 192 160-160zM448 502.857v416l-160-160-192 192-96-96 192-192-160-160z" data-tags="shrink, collapse, minimize, contract" />
<glyph unicode="&#xe991;" d="M1002.934 132.981l-460.552 394.76c21.448 40.298 33.618 86.282 33.618 135.116 0 159.058-128.942 288-288 288-29.094 0-57.172-4.332-83.646-12.354l166.39-166.39c24.89-24.89 24.89-65.62 0-90.51l-101.49-101.49c-24.89-24.89-65.62-24.89-90.51 0l-166.39 166.39c-8.022-26.474-12.354-54.552-12.354-83.646 0-159.058 128.942-288 288-288 48.834 0 94.818 12.17 135.116 33.62l394.76-460.552c22.908-26.724 62.016-28.226 86.904-3.338l101.492 101.492c24.888 24.888 23.386 63.994-3.338 86.902z" data-tags="wrench, tool, service" />
<glyph unicode="&#xe994;" d="M933.79 340.607c-53.726 93.054-21.416 212.304 72.152 266.488l-100.626 174.292c-28.75-16.854-62.176-26.518-97.846-26.518-107.536 0-194.708 87.746-194.708 195.99h-201.258c0.266-33.41-8.074-67.282-25.958-98.252-53.724-93.056-173.156-124.702-266.862-70.758l-100.624-174.292c28.97-16.472 54.050-40.588 71.886-71.478 53.638-92.908 21.512-211.92-71.708-266.224l100.626-174.292c28.65 16.696 61.916 26.254 97.4 26.254 107.196 0 194.144-87.192 194.7-194.958h201.254c-0.086 33.074 8.272 66.57 25.966 97.218 53.636 92.906 172.776 124.594 266.414 71.012l100.626 174.29c-28.78 16.466-53.692 40.498-71.434 71.228zM512 231.525c-114.508 0-207.336 92.824-207.336 207.334 0 114.508 92.826 207.334 207.336 207.334 114.508 0 207.332-92.826 207.332-207.334-0.002-114.51-92.824-207.334-207.332-207.334z" data-tags="cog, gear, preferences, settings, generate, control, options" />
<glyph unicode="&#xe99a;" d="M521.142 374.857v448c-247.424 0-448-200.576-448-448s200.576-448 448-448 448 200.576 448 448c0 72.034-17.028 140.084-47.236 200.382l-400.764-200.382zM985.906 703.239c-73.552 146.816-225.374 247.618-400.764 247.618v-448l400.764 200.382z" data-tags="pie-chart, stats, statistics, graph" />
<glyph unicode="&#xe9a8;" d="M1010.174 35.107l-548.634 499.458 25.534 25.598c20.894 20.954 32.188 48.030 33.918 75.61 1.002 0.45 2.002 0.912 2.958 1.442l102.99 64.402c13.934 16.392 12.916 42.268-2.284 57.502l-179.12 179.608c-15.19 15.234-40.998 16.262-57.344 2.284l-64.236-103.268c-0.526-0.966-0.99-1.966-1.44-2.974-27.502-1.736-54.5-13.056-75.398-34.006l-97.428-97.702c-20.898-20.956-32.184-48.026-33.918-75.604-1.004-0.45-2.004-0.916-2.964-1.446l-102.986-64.406c-13.942-16.39-12.916-42.264 2.276-57.496l179.12-179.604c15.194-15.238 40.996-16.262 57.35-2.286l64.228 103.27c0.528 0.958 0.988 1.96 1.442 2.966 27.502 1.738 54.504 13.050 75.398 34.004l28.292 28.372 498.122-550.114c14.436-15.944 36.7-18.518 49.474-5.712l50.356 50.488c12.764 12.808 10.196 35.132-5.706 49.614z" data-tags="hammer, gavel, rules, justice, legal" />
<glyph unicode="&#xe9ac;" d="M128 630.857v-640c0-35.2 28.8-64 64-64h576c35.2 0 64 28.8 64 64v640h-704zM320 54.857h-64v448h64v-448zM448 54.857h-64v448h64v-448zM576 54.857h-64v448h64v-448zM704 54.857h-64v448h64v-448zM848 822.857h-208v80c0 26.4-21.6 48-48 48h-224c-26.4 0-48-21.6-48-48v-80h-208c-26.4 0-48-21.6-48-48v-80h832v80c0 26.4-21.6 48-48 48zM576 822.857h-192v63.198h192v-63.198z" data-tags="bin, trashcan, remove, delete, recycle, dispose" />
<glyph unicode="&#xe9ae;" d="M960 694.857h-256v64c0 35.2-28.8 64-64 64h-256c-35.204 0-64-28.8-64-64v-64h-256c-35.2 0-64-28.8-64-64v-576c0-35.202 28.796-64 64-64h896c35.2 0 64 28.798 64 64v576c0 35.2-28.8 64-64 64zM384 758.741c0.034 0.040 0.074 0.082 0.114 0.116h255.772c0.042-0.034 0.082-0.076 0.118-0.116v-63.884h-256.004v63.884zM960 438.857h-128v-96c0-17.602-14.4-32-32-32h-64c-17.604 0-32 14.398-32 32v96h-384v-96c0-17.602-14.4-32-32-32h-64c-17.602 0-32 14.398-32 32v96h-128v64h896v-64z" data-tags="briefcase, portfolio, suitcase, work, job, employee" />
<glyph unicode="&#xe9b3;" d="M1024 502.857h-100.924c-27.64 178.24-168.836 319.436-347.076 347.076v100.924h-128v-100.924c-178.24-27.64-319.436-168.836-347.076-347.076h-100.924v-128h100.924c27.64-178.24 168.836-319.436 347.076-347.076v-100.924h128v100.924c178.24 27.64 319.436 168.836 347.076 347.076h100.924v128zM792.822 502.857h-99.762c-19.284 54.55-62.51 97.778-117.060 117.060v99.762c107.514-24.49 192.332-109.31 216.822-216.822zM512 374.857c-35.346 0-64 28.654-64 64s28.654 64 64 64c35.346 0 64-28.654 64-64s-28.654-64-64-64zM448 719.679v-99.762c-54.55-19.282-97.778-62.51-117.060-117.060h-99.762c24.49 107.512 109.31 192.332 216.822 216.822zM231.178 374.857h99.762c19.282-54.55 62.51-97.778 117.060-117.060v-99.762c-107.512 24.49-192.332 109.308-216.822 216.822zM576 158.035v99.762c54.55 19.284 97.778 62.51 117.060 117.060h99.762c-24.49-107.514-109.308-192.332-216.822-216.822z" data-tags="target, goal, location, spot" />
<glyph unicode="&#xe9bb;" d="M384 886.857h640v-128h-640v128zM384 502.857h640v-128h-640v128zM384 118.857h640v-128h-640v128zM0 822.857c0 70.692 57.308 128 128 128s128-57.308 128-128c0-70.692-57.308-128-128-128s-128 57.308-128 128zM0 438.857c0 70.692 57.308 128 128 128s128-57.308 128-128c0-70.692-57.308-128-128-128s-128 57.308-128 128zM0 54.857c0 70.692 57.308 128 128 128s128-57.308 128-128c0-70.692-57.308-128-128-128s-128 57.308-128 128z" data-tags="list, todo, bullet, menu, options" />
<glyph unicode="&#xe9bc;" d="M976 182.857h-16v208c0 61.756-50.242 112-112 112h-272v128h16c26.4 0 48 21.6 48 48v160c0 26.4-21.6 48-48 48h-160c-26.4 0-48-21.6-48-48v-160c0-26.4 21.6-48 48-48h16v-128h-272c-61.756 0-112-50.244-112-112v-208h-16c-26.4 0-48-21.6-48-48v-160c0-26.4 21.6-48 48-48h160c26.4 0 48 21.6 48 48v160c0 26.4-21.6 48-48 48h-16v192h256v-192h-16c-26.4 0-48-21.6-48-48v-160c0-26.4 21.6-48 48-48h160c26.4 0 48 21.6 48 48v160c0 26.4-21.6 48-48 48h-16v192h256v-192h-16c-26.4 0-48-21.6-48-48v-160c0-26.4 21.6-48 48-48h160c26.4 0 48 21.6 48 48v160c0 26.4-21.6 48-48 48zM192-9.143h-128v128h128v-128zM576-9.143h-128v128h128v-128zM448 694.857v128h128v-128h-128zM960-9.143h-128v128h128v-128z" data-tags="tree, branches, inheritance" />
<glyph unicode="&#xe9bd;" d="M-7.574 847.9h1039.148v-222.674h-1039.148zM-7.574 551.001h1039.148v-222.674h-1039.148zM-7.574 254.102h1039.148v-222.674h-1039.148z" data-tags="menu, list, options, lines, hamburger" />
<glyph unicode="&#xe9c5;" d="M896 438.857h-160l-224-224-224 224h-160l-128-256v-64h1024v64l-128 256zM0 54.857h1024v-64h-1024v64zM576 630.857v256h-128v-256h-224l288-288 288 288h-224z" data-tags="download, save, store" />
<glyph unicode="&#xe9c6;" d="M0 54.857h1024v-64h-1024zM1024 182.857v-64h-1024v64l128 256h256v-128h256v128h256zM224 630.857l288 288 288-288h-224v-256h-128v256z" data-tags="upload, load, open" />
<glyph unicode="&#xe9c9;" d="M480 886.857c-265.096 0-480-214.904-480-480 0-265.098 214.904-480 480-480 265.098 0 480 214.902 480 480 0 265.096-214.902 480-480 480zM751.59 246.857c8.58 40.454 13.996 83.392 15.758 128h127.446c-3.336-44.196-13.624-87.114-30.68-128h-112.524zM208.41 566.857c-8.58-40.454-13.996-83.392-15.758-128h-127.444c3.336 44.194 13.622 87.114 30.678 128h112.524zM686.036 566.857c9.614-40.962 15.398-83.854 17.28-128h-191.316v128h174.036zM512 630.857v187.338c14.59-4.246 29.044-11.37 43.228-21.37 26.582-18.74 52.012-47.608 73.54-83.486 14.882-24.802 27.752-52.416 38.496-82.484h-155.264zM331.232 713.341c21.528 35.878 46.956 64.748 73.54 83.486 14.182 10 28.638 17.124 43.228 21.37v-187.34h-155.264c10.746 30.066 23.616 57.68 38.496 82.484zM448 566.857v-128h-191.314c1.88 44.146 7.666 87.038 17.278 128h174.036zM95.888 246.857c-17.056 40.886-27.342 83.804-30.678 128h127.444c1.762-44.608 7.178-87.546 15.758-128h-112.524zM256.686 374.857h191.314v-128h-174.036c-9.612 40.96-15.398 83.854-17.278 128zM448 182.857v-187.34c-14.588 4.246-29.044 11.372-43.228 21.37-26.584 18.74-52.014 47.61-73.54 83.486-14.882 24.804-27.75 52.418-38.498 82.484h155.266zM628.768 100.373c-21.528-35.876-46.958-64.746-73.54-83.486-14.184-9.998-28.638-17.124-43.228-21.37v187.34h155.266c-10.746-30.066-23.616-57.68-38.498-82.484zM512 246.857v128h191.314c-1.88-44.146-7.666-87.040-17.28-128h-174.034zM767.348 438.857c-1.762 44.608-7.178 87.546-15.758 128h112.524c17.056-40.886 27.344-83.806 30.68-128h-127.446zM830.658 630.857h-95.9c-18.638 58.762-44.376 110.294-75.316 151.428 42.536-20.34 81.058-47.616 114.714-81.272 21.48-21.478 40.362-44.938 56.502-70.156zM185.844 701.013c33.658 33.658 72.18 60.932 114.714 81.272-30.942-41.134-56.676-92.666-75.316-151.428h-95.898c16.138 25.218 35.022 48.678 56.5 70.156zM129.344 182.857h95.898c18.64-58.762 44.376-110.294 75.318-151.43-42.536 20.34-81.058 47.616-114.714 81.274-21.48 21.478-40.364 44.938-56.502 70.156zM774.156 112.701c-33.656-33.658-72.18-60.934-114.714-81.274 30.942 41.134 56.678 92.668 75.316 151.43h95.9c-16.14-25.218-35.022-48.678-56.502-70.156z" data-tags="sphere, globe, internet" />
<glyph unicode="&#xe9cb;" d="M440.236 315.091c-13.31 0-26.616 5.076-36.77 15.23-95.134 95.136-95.134 249.934 0 345.070l192 192c46.088 46.086 107.36 71.466 172.534 71.466s126.448-25.38 172.536-71.464c95.132-95.136 95.132-249.934 0-345.070l-87.766-87.766c-20.308-20.308-53.23-20.308-73.54 0-20.306 20.306-20.306 53.232 0 73.54l87.766 87.766c54.584 54.586 54.584 143.404 0 197.99-26.442 26.442-61.6 41.004-98.996 41.004s-72.552-14.562-98.996-41.006l-192-191.998c-54.586-54.586-54.586-143.406 0-197.992 20.308-20.306 20.306-53.232 0-73.54-10.15-10.152-23.462-15.23-36.768-15.23zM256-61.143c-65.176 0-126.45 25.38-172.534 71.464-95.134 95.136-95.134 249.934 0 345.070l87.764 87.764c20.308 20.306 53.234 20.306 73.54 0 20.308-20.306 20.308-53.232 0-73.54l-87.764-87.764c-54.586-54.586-54.586-143.406 0-197.992 26.44-26.44 61.598-41.002 98.994-41.002s72.552 14.562 98.998 41.006l192 191.998c54.584 54.586 54.584 143.406 0 197.992-20.308 20.308-20.306 53.232 0 73.54 20.306 20.306 53.232 20.306 73.54-0.002 95.132-95.134 95.132-249.932 0.002-345.068l-192.002-192c-46.090-46.088-107.364-71.466-172.538-71.466z" data-tags="link, chain, url, uri, anchor" />
<glyph unicode="&#xe9cc;" d="M0 950.857h128v-1024h-128v1024zM832 307.855c82.624 0 154.57 19.984 192 49.5v512c-37.43-29.518-109.376-49.502-192-49.502s-154.57 19.984-192 49.502v-512c37.43-29.516 109.376-49.5 192-49.5zM608 918.329c-46.906 19.94-115.52 32.528-192 32.528-96.396 0-180.334-19.984-224-49.502v-512c43.666 29.518 127.604 49.502 224 49.502 76.48 0 145.094-12.588 192-32.528v512z" data-tags="flag, report, mark" />
<glyph unicode="&#xe9cd;" d="M665.832 623.809l-64.952 64.922-324.81-324.742c-53.814-53.792-53.814-141.048 0-194.844 53.804-53.792 141.060-53.792 194.874 0l389.772 389.708c89.714 89.662 89.714 235.062 0 324.726-89.666 89.704-235.112 89.704-324.782 0l-409.23-409.178c-0.29-0.304-0.612-0.576-0.876-0.846-125.102-125.096-125.102-327.856 0-452.906 125.054-125.056 327.868-125.056 452.988 0 0.274 0.274 0.516 0.568 0.82 0.876l0.032-0.034 279.332 279.292-64.986 64.92-279.33-279.262c-0.296-0.268-0.564-0.57-0.846-0.844-89.074-89.058-233.98-89.058-323.076 0-89.062 89.042-89.062 233.922 0 322.978 0.304 0.304 0.604 0.582 0.888 0.846l-0.046 0.060 409.28 409.166c53.712 53.738 141.144 53.738 194.886 0 53.712-53.734 53.712-141.148 0-194.84l-389.772-389.7c-17.936-17.922-47.054-17.922-64.972 0-17.894 17.886-17.894 47.032 0 64.92l324.806 324.782z" data-tags="attachment, paperclip" />
<glyph unicode="&#xe9d7;" d="M1024 553.807l-353.78 51.408-158.22 320.582-158.216-320.582-353.784-51.408 256-249.538-60.432-352.352 316.432 166.358 316.432-166.358-60.434 352.352 256.002 249.538zM512 197.359l-223.462-117.48 42.676 248.83-180.786 176.222 249.84 36.304 111.732 226.396 111.736-226.396 249.836-36.304-180.788-176.222 42.678-248.83-223.462 117.48z" data-tags="star-empty, rate, star, favorite, bookmark" />
<glyph unicode="&#xe9d8;" d="M1024 553.807l-353.78 51.408-158.22 320.582-158.216-320.582-353.784-51.408 256-249.538-60.432-352.352 316.432 166.358 316.432-166.358-60.434 352.352 256.002 249.538zM512 197.359l-0.942-0.496 0.942 570.768 111.736-226.396 249.836-36.304-180.788-176.222 42.678-248.83-223.462 117.48z" data-tags="star-half, rate, star" />
<glyph unicode="&#xe9d9;" d="M1024 553.807l-353.78 51.408-158.22 320.582-158.216-320.582-353.784-51.408 256-249.538-60.432-352.352 316.432 166.358 316.432-166.358-60.434 352.352 256.002 249.538z" data-tags="star-full, rate, star, favorite, bookmark" />
<glyph unicode="&#xea0a;" d="M992 566.857h-352v352c0 17.672-14.328 32-32 32h-192c-17.672 0-32-14.328-32-32v-352h-352c-17.672 0-32-14.328-32-32v-192c0-17.672 14.328-32 32-32h352v-352c0-17.672 14.328-32 32-32h192c17.672 0 32 14.328 32 32v352h352c17.672 0 32 14.328 32 32v192c0 17.672-14.328 32-32 32z" data-tags="plus, add, sum" />
<glyph unicode="&#xea0b;" d="M0 534.857v-192c0-17.672 14.328-32 32-32h960c17.672 0 32 14.328 32 32v192c0 17.672-14.328 32-32 32h-960c-17.672 0-32-14.328-32-32z" data-tags="minus, subtract, minimize, line" />
<glyph unicode="&#xea10;" d="M864 822.857l-480-480-224 224-160-160 384-384 640 640z" data-tags="checkmark, tick, correct, accept, ok" />
<glyph unicode="&#xea56;" d="M512 950.857c-282.77 0-512-229.23-512-512s229.23-512 512-512 512 229.23 512 512-229.23 512-512 512zM512 54.857c-212.078 0-384 171.922-384 384s171.922 384 384 384c212.078 0 384-171.922 384-384s-171.922-384-384-384z" data-tags="wizard" />
<glyph unicode="&#xea5b;" d="M512 950.857c-282.77 0-512-71.634-512-160v-96l384-384v-320c0-35.346 57.306-64 128-64 70.692 0 128 28.654 128 64v320l384 384v96c0 88.366-229.23 160-512 160zM94.384 812.033c23.944 13.658 57.582 26.62 97.278 37.488 87.944 24.076 201.708 37.336 320.338 37.336 118.628 0 232.394-13.26 320.338-37.336 39.696-10.868 73.334-23.83 97.28-37.488 15.792-9.006 24.324-16.624 28.296-21.176-3.972-4.552-12.506-12.168-28.296-21.176-23.946-13.658-57.584-26.62-97.28-37.488-87.942-24.076-201.708-37.336-320.338-37.336s-232.394 13.26-320.338 37.336c-39.696 10.868-73.334 23.83-97.278 37.488-15.792 9.008-24.324 16.624-28.298 21.176 3.974 4.552 12.506 12.168 28.298 21.176z" data-tags="filter, funnel" />
<glyph unicode="&#xea82;" d="M864 246.857c-45.16 0-85.92-18.738-115.012-48.83l-431.004 215.502c1.314 8.252 2.016 16.706 2.016 25.328s-0.702 17.076-2.016 25.326l431.004 215.502c29.092-30.090 69.852-48.828 115.012-48.828 88.366 0 160 71.634 160 160s-71.634 160-160 160-160-71.634-160-160c0-8.622 0.704-17.076 2.016-25.326l-431.004-215.504c-29.092 30.090-69.852 48.83-115.012 48.83-88.366 0-160-71.636-160-160 0-88.368 71.634-160 160-160 45.16 0 85.92 18.738 115.012 48.828l431.004-215.502c-1.312-8.25-2.016-16.704-2.016-25.326 0-88.368 71.634-160 160-160s160 71.632 160 160c0 88.364-71.634 160-160 160z" data-tags="share, social" />
<glyph unicode="&#xeab5;" d="M235.278 702.137c-50.792 0-94.484-16.806-131.084-50.416-38.086-35.852-57.14-80.66-57.14-134.436 0-35.852 10.376-69.462 31.294-100.832 18.674-29.126 38.18-47.806 63.778-56.024v-2.242c-25.598-10.448-36.966-36.59-36.966-78.418 0-32.124 11.372-56.022 36.966-71.708v-2.242c-70.654-23.146-102.992-66.094-102.992-128.83 0-54.534 23.748-94.488 70.066-119.878 36.59-20.172 83.578-30.254 140.346-30.254 138.17 0 207.406 57.882 207.406 173.664 0 72.446-53.322 116.882-160.128 133.316-24.646 3.726-43.286 12.696-55.982 26.89-9.708 9.708-14.542 19.418-14.542 29.126 0 27.632 14.958 43.696 44.82 48.176 45.558 6.714 82.728 27.824 111.486 63.296 28.75 35.48 43.13 77.118 43.13 124.916 0 14.938-4.518 30.996-10.488 48.172 19.418 4.488 33.050 8.594 43.292 12.332v115.392c-45.054-17.928-86.99-26.884-122.842-26.884-31.374 17.922-63.824 26.884-100.42 26.884zM247.602 143.087c62.744 0 94.104-19.042 94.104-57.14 0-40.336-28.754-60.492-86.264-60.492-65.724 0-98.586 19.422-98.586 58.254-0.002 39.59 30.244 59.378 90.746 59.378zM239.76 438.857c-47.054 0-70.586 25.764-70.586 77.308 0 55.262 23.532 82.906 70.586 82.906 22.402 0 39.958-8.596 52.652-25.768 10.458-15.69 15.69-34.36 15.69-56.022 0-52.278-22.786-78.424-68.342-78.424zM580.384 950.857c-21.656 0-40.14-8.214-55.454-24.648-15.314-16.436-22.97-36.216-22.97-59.376 0-22.41 7.658-41.82 22.97-58.258 15.308-16.434 33.792-24.64 55.454-24.64 20.91 0 39.028 8.208 54.34 24.64 15.312 16.438 22.96 35.848 22.96 58.258 0 23.16-7.648 42.944-22.96 59.376-15.318 16.434-33.43 24.648-54.34 24.648zM643.13 694.859h-126.606c1.496-14.336-0.64-36.042-0.64-71.14v-348.432c0-35.856 2.136-64.774 0.64-76.036h126.606c-1.5 16.376-5.394 44.668-5.394 82.758v343.946c-0.006 32.864 3.894 54.568 5.394 68.904zM922.336 306.657c-32.872 0-49.082 25.028-49.082 75.066v206.64h49.864c8.96 0 17.032 0.492 27.118-0.246 10.086-0.748 14.152-0.25 19.278-0.25v106.99h-96.258v47.616c0 17.922 2.816 34.302 5.054 44.542h-129.958c2.242-10.24 2.028-25.876 2.028-46.79v-45.368h-56.32v-106.988c15.364 2.24 29.090 3.356 38.796 3.356l17.524-1.118v-202.786c0-62.742 7.958-108.672 23.636-137.8 20.922-38.84 57.622-58.258 112.136-58.258 38.848 0 73.118 7.464 98.714 22.41v112.032c-20.474-12.7-39.382-19.048-62.53-19.048z" data-tags="github, brand, octacat, social" />
<glyph unicode="&#xeadd;" d="M743.028 566.857h-135.292l-95.732-141.032-95.742 141.032h-135.29l162.162-242.464-182.972-269.536h251.838v91.576h-50.156l50.156 74.994 111.396-166.57h140.444l-182.976 269.536 162.164 242.464zM917.806 721.781c-22.21 30.292-53.174 65.7-87.178 99.704s-69.412 64.964-99.704 87.178c-51.574 37.82-76.592 42.194-90.924 42.194h-496c-44.112 0-80-35.888-80-80v-864c0-44.112 35.886-80 80-80h736c44.112 0 80 35.888 80 80v624c0 14.332-4.372 39.35-42.194 90.924v0zM785.374 776.231c30.7-30.7 54.8-58.398 72.58-81.374h-153.954v153.946c22.982-17.78 50.678-41.878 81.374-72.572v0zM896 6.857c0-8.672-7.328-16-16-16h-736c-8.672 0-16 7.328-16 16v864c0 8.672 7.328 16 16 16 0 0 495.956 0.002 496 0v-224c0-17.672 14.324-32 32-32h224v-624z" data-tags="file-excel, file, file-format, xlc" />
<glyph unicode="&#xf085;" d="M475.424 438.857q0 56.245-39.796 96.041t-96.041 39.796-96.041-39.796-39.796-96.041 39.796-96.041 96.041-39.796 96.041 39.796 39.796 96.041zM882.934 167.184q0 27.592-20.163 47.755t-47.755 20.163-47.755-20.163-20.163-47.755q0-28.123 19.898-48.020t48.020-19.898 48.020 19.898 19.898 48.020zM882.934 710.53q0 27.592-20.163 47.755t-47.755 20.163-47.755-20.163-20.163-47.755q0-28.123 19.898-48.020t48.020-19.898 48.020 19.898 19.898 48.020zM679.179 487.143v-98.163q0-5.306-3.714-10.347t-8.49-5.571l-82.245-12.734q-5.837-18.571-16.98-40.327 18.041-25.47 47.755-61.020 3.714-5.306 3.714-10.613 0-6.367-3.714-10.082-12.204-15.918-43.776-47.49t-41.653-31.571q-5.837 0-11.143 3.714l-61.020 47.755q-19.633-10.081-40.857-16.449-5.837-57.306-12.204-82.245-3.714-12.734-15.918-12.734h-98.694q-5.837 0-10.613 3.98t-5.306 9.286l-12.204 81.184q-18.041 5.306-39.796 16.449l-62.613-47.224q-3.714-3.714-10.613-3.714-5.837 0-11.143 4.245-76.408 70.571-76.408 84.898 0 4.776 3.714 10.082 5.306 7.429 21.755 28.123t24.939 32.367q-12.204 23.347-18.571 43.51l-80.653 12.734q-5.306 0.53-9.020 5.041t-3.714 10.347v98.163q0 5.306 3.714 10.347t8.49 5.571l82.245 12.734q5.837 18.571 16.98 40.327-18.041 25.47-47.755 61.020-3.714 5.837-3.714 10.613 0 6.367 3.714 10.613 11.673 15.918 43.51 47.224t41.919 31.306q5.837 0 11.143-3.714l61.020-47.755q18.041 9.551 40.857 16.98 5.837 57.306 12.204 81.714 3.714 12.734 15.919 12.734h98.694q5.837 0 10.613-3.98t5.306-9.286l12.204-81.184q18.041-5.306 39.796-16.449l62.613 47.224q4.245 3.714 10.613 3.714 5.837 0 11.143-4.244 76.408-70.571 76.408-84.898 0-4.776-3.714-10.082-6.367-8.49-22.286-28.653t-23.877-31.837q12.204-25.47 18.041-43.51l80.653-12.204q5.306-1.061 9.020-5.571t3.714-10.347zM1018.771 204.327v-74.286q0-8.49-79.061-16.449-6.367-14.327-15.918-27.592 27.061-59.959 27.061-73.224 0-2.123-2.123-3.714-64.734-37.673-65.796-37.673-4.245 0-24.408 24.939t-27.592 36.082q-10.613-1.061-15.919-1.061t-15.918 1.061q-7.429-11.143-27.592-36.082t-24.408-24.939q-1.061 0-65.796 37.673-2.123 1.592-2.123 3.714 0 13.266 27.061 73.224-9.551 13.266-15.919 27.592-79.061 7.959-79.061 16.449v74.286q0 8.49 79.061 16.449 6.898 15.387 15.919 27.592-27.061 59.959-27.061 73.224 0 2.123 2.123 3.714 2.123 1.061 18.571 10.613t31.306 18.041 15.918 8.49q4.245 0 24.408-24.673t27.592-35.816q10.613 1.061 15.918 1.061t15.919-1.061q27.061 37.673 48.816 59.429l3.184 1.061q2.123 0 65.796-37.143 2.123-1.592 2.123-3.714 0-13.266-27.061-73.224 9.020-12.204 15.919-27.592 79.061-7.959 79.061-16.449zM1018.771 747.673v-74.286q0-8.49-79.061-16.449-6.367-14.327-15.918-27.592 27.061-59.959 27.061-73.224 0-2.123-2.123-3.714-64.734-37.673-65.796-37.673-4.245 0-24.408 24.939t-27.592 36.081q-10.613-1.061-15.919-1.061t-15.918 1.061q-7.429-11.143-27.592-36.081t-24.408-24.939q-1.061 0-65.796 37.673-2.123 1.592-2.123 3.714 0 13.266 27.061 73.224-9.551 13.266-15.919 27.592-79.061 7.959-79.061 16.449v74.286q0 8.49 79.061 16.449 6.898 15.387 15.919 27.592-27.061 59.959-27.061 73.224 0 2.123 2.123 3.714 2.123 1.061 18.571 10.613t31.306 18.041 15.918 8.49q4.245 0 24.408-24.673t27.592-35.816q10.613 1.061 15.918 1.061t15.919-1.061q27.061 37.673 48.816 59.429l3.184 1.061q2.123 0 65.796-37.143 2.123-1.592 2.123-3.714 0-13.266-27.061-73.224 9.020-12.204 15.919-27.592 79.061-7.959 79.061-16.449z" data-tags="cogs, gears, app" />
<glyph unicode="&#xf0e0;" d="M1024 545.143v-453.714q0-37.714-26.857-64.571t-64.571-26.857h-841.143q-37.714 0-64.571 26.857t-26.857 64.571v453.714q25.143-28 57.714-49.714 206.857-140.571 284-197.143 32.571-24 52.857-37.429t54-27.429 62.857-14h1.143q29.143 0 62.857 14t54 27.429 52.857 37.429q97.143 70.286 284.571 197.143 32.571 22.286 57.143 49.714zM1024 713.143q0-45.143-28-86.286t-69.714-70.286q-214.857-149.143-267.429-185.714-5.714-4-24.286-17.429t-30.857-21.714-29.714-18.571-32.857-15.429-28.571-5.143h-1.143q-13.143 0-28.571 5.143t-32.857 15.429-29.714 18.571-30.857 21.714-24.286 17.429q-52 36.571-149.714 104.286t-117.143 81.429q-35.429 24-66.857 66t-31.429 78q0 44.571 23.714 74.286t67.714 29.714h841.143q37.143 0 64.286-26.857t27.143-64.571z" data-tags="envelope, mail" />
</font>
</defs>
</svg>
